# xmcd CD database file
#
# Track frame offsets:
#	150
#	12992
#	24355
#	38602
#	58510
#	76030
#	93707
#	111912
#	129602
#	148135
#	165707
#	185040
#	203872
#	217675
#	233445
#	250972
#	266917
#	286097
#	307407
#	323797
#
# Disc length: 4527 seconds
#
# Revision: 5
# Processed by: cddbd v1.5.2PL0 Copyright (c) Steve Scherf et al.
# Submitted via: CDex 1.51
#
DISCID=1c11ad14
DTITLE=John Michael Montgomery - The Very Best Of John Michael Montgomery
DYEAR=2003
DGENRE=Country
TTITLE0=John Michael Montgomery - Be My Baby Tonight
TTITLE1=John Michael Montgomery - Sold (The Grundy County Auction Incident)
TTITLE2=John Michael Montgomery - Life's A Dance
TTITLE3=John Michael Montgomery - I Swear
TTITLE4=John Michael Montgomery feat. Alison Krauss and Dan Tyminski - The Little Girl
TTITLE5=John Michael Montgomery - If You've Got Love
TTITLE6=John Michael Montgomery - I Love The Way You Love Me
TTITLE7=John Michael Montgomery - Cover You In Kisses
TTITLE8=John Michael Montgomery - Rope The Moon
TTITLE9=John Michael Montgomery - I Can Love You Like That
TTITLE10=John Michael Montgomery - How Was I To Know
TTITLE11=John Michael Montgomery - Hold On To Me
TTITLE12=John Michael Montgomery - No Man's Land
TTITLE13=John Michael Montgomery - Home To You
TTITLE14=John Michael Montgomery - Friends
TTITLE15=John Michael Montgomery - Angel In My Eyes
TTITLE16=John Michael Montgomery - Long As I Live
TTITLE17=John Michael Montgomery - 'Til Nothing Comes Between Us
TTITLE18=John Michael Montgomery - Cool
TTITLE19=John Michael Montgomery - One Day Less
EXTD=YEAR: 2003
EXTT0=
EXTT1=
EXTT2=
EXTT3=
EXTT4=
EXTT5=
EXTT6=
EXTT7=
EXTT8=
EXTT9=
EXTT10=
EXTT11=
EXTT12=
EXTT13=
EXTT14=
EXTT15=
EXTT16=
EXTT17=
EXTT18=
EXTT19=
PLAYORDER=
